<svg width="1080" height="577" viewBox="0 0 1080 577" fill="none" xmlns="http://www.w3.org/2000/svg">
<g clip-path="url(#clip0_2_12)">
<path d="M-30.2212 1078.39L-183.805 699.815C-105.24 642.356 -26.6741 584.897 57.7587 534.213C142.192 483.529 232.492 439.619 340.589 422.41C448.686 405.201 574.58 414.692 685.981 380.26C797.383 345.829 894.292 267.474 982.569 217.809C1070.85 168.143 1150.49 147.167 1230.13 126.191L1383.72 504.764L-30.2212 1078.39Z" fill="#F76D74"/>
<path d="M-30.2212 1078.39L-115.546 868.07C-30.4921 788.787 54.5614 709.504 138.142 698.529C221.724 687.553 303.832 744.884 412.707 698.83C521.582 652.775 657.223 503.336 763.441 455.627C869.658 407.918 946.452 461.939 1030.71 452.031C1114.96 442.122 1206.68 368.284 1298.39 294.446L1383.72 504.764L-30.2212 1078.39Z" fill="#F76D74"/>
</g>
<defs>
<clipPath id="clip0_2_12">
<rect width="1525.87" height="535.642" fill="white" transform="translate(-235 573.624) rotate(-22.082)"/>
</clipPath>
</defs>
</svg>
