<svg width="184" height="184" viewBox="0 0 184 184" fill="none" xmlns="http://www.w3.org/2000/svg">
<path d="M70.0359 40.3794C69.2653 40.472 68.486 40.3016 67.8245 39.8957C67.1629 39.4899 66.6579 38.8724 66.3913 38.1435L52.8415 4.78333C52.6697 4.36051 52.5829 3.90799 52.586 3.45161C52.5891 2.99524 52.6821 2.54396 52.8596 2.12351C53.0372 1.70307 53.2957 1.32172 53.6206 1.00121C53.9455 0.680709 54.3304 0.427326 54.7532 0.255554C55.1761 0.083782 55.6286 -0.00303013 56.0849 8.07407e-05C56.5413 0.00319161 56.9926 0.0961674 57.4131 0.273688C57.8335 0.451208 58.2149 0.709796 58.5354 1.0347C58.8559 1.3596 59.1092 1.74446 59.281 2.16729L72.8308 35.5275C73.1577 36.3737 73.1421 37.3139 72.7872 38.1488C72.4324 38.9836 71.7663 39.6474 70.9303 39.9993C70.6526 40.1697 70.3512 40.2978 70.0359 40.3794Z" fill="#F76D74"/>
<path d="M180.357 132.634C179.749 132.709 179.133 132.624 178.568 132.388L144.627 118.056C143.828 117.663 143.211 116.98 142.9 116.146C142.589 115.312 142.608 114.391 142.954 113.572C143.299 112.752 143.945 112.095 144.759 111.736C145.573 111.376 146.493 111.342 147.332 111.639L181.274 125.926C181.997 126.215 182.603 126.737 182.995 127.41C183.387 128.082 183.543 128.867 183.438 129.639C183.332 130.41 182.972 131.124 182.413 131.667C181.855 132.21 181.131 132.55 180.357 132.634Z" fill="#F76D74"/>
<path d="M36.9217 72.0627C36.3142 72.136 35.698 72.0513 35.1329 71.8168L2.57765 58.0881C1.72965 57.7293 1.05889 57.0484 0.712952 56.1951C0.367014 55.3418 0.374244 54.386 0.733013 53.538C1.09178 52.69 1.77272 52.0192 2.62603 51.6733C3.47935 51.3273 4.43515 51.3346 5.28315 51.6933L37.7489 65.3996C38.4723 65.688 39.0783 66.2102 39.4705 66.883C39.8627 67.5557 40.0184 68.3404 39.913 69.1119C39.8075 69.8835 39.4469 70.5975 38.8886 71.1404C38.3303 71.6832 37.6064 72.0237 36.8322 72.1074L36.9217 72.0627Z" fill="#F76D74"/>
<path d="M146.483 73.5161C145.598 73.734 144.662 73.5946 143.879 73.128C143.097 72.6613 142.529 71.9051 142.3 71.023C142.07 70.1409 142.198 69.204 142.654 68.4151C143.111 67.6263 143.859 67.0489 144.739 66.8082L179.217 52.9007C179.64 52.7289 180.092 52.6421 180.548 52.6453C181.005 52.6484 181.456 52.7413 181.877 52.9188C182.297 53.0964 182.678 53.355 182.999 53.6799C183.319 54.0048 183.573 54.3896 183.744 54.8124C183.916 55.2353 184.003 55.6878 184 56.1442C183.997 56.6005 183.904 57.0518 183.726 57.4723C183.549 57.8927 183.29 58.2741 182.965 58.5946C182.64 58.9151 182.256 59.1684 181.833 59.3402L147.444 73.2925C147.137 73.4174 146.813 73.4928 146.483 73.5161Z" fill="#F76D74"/>
<path d="M3.94158 131.404C3.09655 131.515 2.2402 131.313 1.5342 130.835C0.828203 130.358 0.321395 129.639 0.109515 128.813C-0.102365 127.988 -0.00467786 127.113 0.384129 126.355C0.772935 125.596 1.42596 125.007 2.2199 124.697L34.5516 111.572C34.9744 111.4 35.4269 111.313 35.8833 111.316C36.3397 111.319 36.7909 111.412 37.2114 111.59C37.6318 111.767 38.0132 112.026 38.3337 112.351C38.6542 112.676 38.9076 113.061 39.0793 113.483C39.2511 113.906 39.3379 114.359 39.3348 114.815C39.3317 115.272 39.2387 115.723 39.0612 116.143C38.8837 116.564 38.6251 116.945 38.3002 117.266C37.9753 117.586 37.5904 117.839 37.1676 118.011L4.81359 131.159C4.53639 131.282 4.24264 131.365 3.94158 131.404Z" fill="#F76D74"/>
<path d="M115.246 41.408C114.639 41.491 114.02 41.406 113.458 41.162C112.626 40.8067 111.968 40.1386 111.625 39.3018C111.282 38.4651 111.281 37.527 111.624 36.6901L125.934 2.81571C126.056 2.33256 126.281 1.88136 126.593 1.4929C126.905 1.10445 127.297 0.787869 127.743 0.564731C128.188 0.341592 128.677 0.217147 129.175 0.199893C129.673 0.182639 130.168 0.272982 130.628 0.464749C131.088 0.656516 131.501 0.945199 131.84 1.31112C132.178 1.67705 132.433 2.1116 132.588 2.58516C132.743 3.05872 132.794 3.56014 132.738 4.05524C132.682 4.55034 132.519 5.02749 132.262 5.45412L117.952 39.3286C117.722 39.8816 117.352 40.3648 116.877 40.7297C116.402 41.0946 115.84 41.3285 115.246 41.408Z" fill="#F76D74"/>
<path d="M55.2562 183.457C54.6468 183.524 54.0303 183.432 53.4675 183.189C52.6357 182.833 51.976 182.166 51.6292 181.331C51.2825 180.495 51.2761 179.557 51.6116 178.717L65.3403 146.05C65.7334 145.252 66.4166 144.634 67.2502 144.323C68.0838 144.012 69.0048 144.031 69.8246 144.377C70.6444 144.722 71.3012 145.368 71.6605 146.182C72.0198 146.996 72.0545 147.917 71.7575 148.755L58.0288 181.266C57.7997 181.842 57.4229 182.348 56.9362 182.733C56.4495 183.118 55.8701 183.367 55.2562 183.457Z" fill="#F76D74"/>
<path d="M132.754 75.6625C128.115 64.8142 119.39 56.2292 108.468 51.766C97.5466 47.3028 85.3065 47.3204 74.3976 51.8151C63.4887 56.3098 54.7887 64.9198 50.1811 75.7815C45.5734 86.6431 45.4287 98.8825 49.7783 109.85C56.6202 126.463 74.3736 132.209 88.2588 141.98C92.5294 144.999 98.5217 160.36 98.5217 160.36L133.715 145.871C133.715 145.871 127.164 130.734 128.058 125.591C131.01 109 139.596 92.3873 132.754 75.6625Z" fill="#4D60EB"/>
<path opacity="0.5" d="M132.754 75.6625C128.115 64.8142 119.39 56.2292 108.468 51.766C97.5466 47.3028 85.3065 47.3204 74.3976 51.8151C63.4887 56.3098 54.7887 64.9198 50.1811 75.7815C45.5734 86.6431 45.4287 98.8825 49.7783 109.85C56.6202 126.463 74.3736 132.209 88.2588 141.98C92.5294 144.999 98.5217 160.36 98.5217 160.36L133.715 145.871C133.715 145.871 127.164 130.734 128.058 125.591C131.01 109 139.596 92.3873 132.754 75.6625Z" fill="white"/>
<path d="M128.752 162.462L113.726 168.655C111.048 169.75 108.046 169.739 105.376 168.624C102.706 167.509 100.587 165.382 99.4832 162.708L134.677 148.286C135.758 150.953 135.742 153.938 134.632 156.593C133.522 159.248 131.409 161.358 128.752 162.462Z" fill="#263238"/>
<path d="M125.554 176.146C123.371 177.027 120.928 177.013 118.755 176.104C116.583 175.196 114.856 173.467 113.95 171.294L130.406 164.586C131.274 166.764 131.252 169.196 130.345 171.358C129.437 173.52 127.717 175.239 125.554 176.146Z" fill="#263238"/>
<path opacity="0.5" d="M125.554 176.146C123.371 177.027 120.928 177.013 118.755 176.104C116.583 175.196 114.856 173.467 113.95 171.294L130.406 164.586C131.274 166.764 131.252 169.196 130.345 171.358C129.437 173.52 127.717 175.239 125.554 176.146Z" fill="white"/>
<g opacity="0.7">
<path d="M128.752 162.462L113.726 168.655C111.048 169.75 108.046 169.739 105.376 168.624C102.706 167.509 100.587 165.382 99.4832 162.708L134.677 148.286C135.758 150.953 135.742 153.938 134.632 156.593C133.522 159.248 131.409 161.358 128.752 162.462Z" fill="white"/>
</g>
<path opacity="0.3" d="M124.705 70.028C135.325 96.1884 130.988 132.5 110.775 140.728C90.5618 148.957 60.6897 122.416 51.5 99.7436C45.8208 85.7913 57.6265 67.8144 77.8394 59.4967C98.0522 51.179 119.048 56.031 124.705 70.028Z" fill="white"/>
<path opacity="0.4" d="M122.156 100.705C124.051 105.368 124.521 110.488 123.506 115.418C122.491 120.348 120.037 124.866 116.454 128.401C112.87 131.936 108.319 134.329 103.376 135.276C98.4328 136.224 93.3194 135.685 88.6828 133.727C84.0461 131.768 80.0945 128.478 77.3278 124.274C74.561 120.069 73.1035 115.138 73.1394 110.105C73.1754 105.072 74.7034 100.162 77.53 95.9976C80.3566 91.8329 84.3549 88.6 89.019 86.708C92.1137 85.4495 95.426 84.8133 98.7667 84.8357C102.107 84.8581 105.411 85.5388 108.488 86.8387C111.566 88.1386 114.357 90.0324 116.702 92.4116C119.047 94.7909 120.9 97.6091 122.156 100.705Z" fill="white"/>
<path opacity="0.4" d="M117.393 109.582C121.105 118.727 114.822 124.518 105.677 128.229C96.5316 131.941 87.9903 132.165 84.2787 123.02C80.567 113.875 86.8947 108.218 96.0397 104.506C105.185 100.794 113.659 100.437 117.393 109.582Z" fill="white"/>
<path d="M89.7784 112.809L87.6907 113.834L108.528 156.311L110.615 155.286L89.7784 112.809Z" fill="#4D60EB"/>
<path d="M108.919 105.205L106.708 105.926L121.384 150.905L123.594 150.184L108.919 105.205Z" fill="#4D60EB"/>
<path d="M105.431 126.933L92.3284 121.387L93.2227 119.263L104.201 123.892L108.763 113.115L110.887 114.009L105.431 126.933Z" fill="#4D60EB"/>
</svg>
