<svg width="392" height="50" viewBox="0 0 392 50" fill="none" xmlns="http://www.w3.org/2000/svg">
<path d="M391.684 9.72238C373.052 8.86947 354.435 7.90085 335.804 7.22142C325.475 6.84556 315.147 7.01911 304.818 6.84563C295.682 6.68662 286.546 6.36858 277.41 6.12283C275.126 6.06501 272.856 5.97826 270.572 6.02163C255.029 6.36857 239.471 6.42633 223.957 7.22142C212.781 7.78521 201.663 9.37544 190.515 10.4452C184.008 11.0668 177.472 11.4571 170.979 12.2088C166.281 12.7581 161.627 13.7267 156.958 14.5507C154.229 15.0277 151.528 15.6927 148.785 16.0252C143.599 16.6468 138.399 17.0949 133.198 17.6154C132.322 17.7021 131.446 17.6587 130.584 17.7888C126.188 18.4972 121.793 19.1911 117.411 19.9717C113.504 20.6656 109.625 21.504 105.718 22.2124C100.719 23.1087 95.6913 23.8893 90.6778 24.7711C87.1297 25.3927 83.5671 25.971 80.0764 26.7806C74 28.1973 67.8661 29.4693 61.9333 31.3486C42.684 37.4491 23.5354 43.8388 4.28613 49.9248C3.13692 50.2862 0.465005 49.2743 0.235164 48.4069C-0.238884 46.6866 0.0196909 44.388 0.867232 42.8268C1.47057 41.7137 3.49602 41.2221 4.97563 40.7451C16.6545 37.0299 28.3045 33.1556 40.0839 29.8018C52.8258 26.1733 65.6251 22.6606 78.5537 19.8127C89.7441 17.3407 101.15 15.8951 112.455 13.958C123.488 12.0643 134.477 9.78015 145.567 8.30563C157.792 6.67209 170.102 5.67462 182.399 4.60487C189.481 3.99771 196.735 4.53266 203.674 3.23161C212.566 1.56916 221.328 1.8293 230.235 1.98832C237.087 2.11843 243.939 0.239197 250.82 0.065724C260.358 -0.18003 269.911 0.325884 279.464 0.557182C286.819 0.730655 294.159 0.947471 301.514 1.16431C307.418 1.33779 313.322 1.36672 319.212 1.72812C328.004 2.263 336.795 2.9135 345.572 3.69413C353.516 4.40248 361.431 5.5301 369.375 6.18062C374.949 6.62876 380.565 6.49866 386.153 6.81669C388.122 6.93234 390.046 7.61173 392 8.03096C391.899 8.59474 391.785 9.15859 391.684 9.72238Z" fill="#F76D74"/>
</svg>
